<svg xmlns="http://www.w3.org/2000/svg" xmlns:xlink="http://www.w3.org/1999/xlink" width="163.829" height="112.99" viewBox="0 0 163.829 112.99">
  <defs>
    <clipPath id="clip-path">
      <rect id="Rectangle_469" data-name="Rectangle 469" width="163.829" height="46.489" fill="#555"/>
    </clipPath>
  </defs>
  <g id="Group_174" data-name="Group 174" transform="translate(560 -4059.255)">
    <g id="Group_173" data-name="Group 173" transform="translate(-560 4125.756)" opacity="0.058">
      <rect id="Rectangle_466" data-name="Rectangle 466" width="3.031" height="17.248" transform="translate(62.173 11.109)" fill="#555"/>
      <g id="Group_172" data-name="Group 172" transform="translate(0 0)">
        <g id="Group_171" data-name="Group 171" clip-path="url(#clip-path)">
          <path id="Path_418" data-name="Path 418" d="M64.61,17.016v-.049a6.938,6.938,0,0,1,13.873-.049v.049a6.8,6.8,0,0,1-6.974,6.777,6.729,6.729,0,0,1-6.9-6.728m10.891,0v-.049a4.02,4.02,0,0,0-3.992-4.188,3.9,3.9,0,0,0-3.918,4.139v.049a4.031,4.031,0,0,0,3.968,4.189,3.924,3.924,0,0,0,3.942-4.14" transform="translate(31.203 4.91)" fill="#555"/>
          <path id="Path_419" data-name="Path 419" d="M85.474,17.016v-.049a6.939,6.939,0,0,1,13.874-.049v.049a6.8,6.8,0,0,1-6.974,6.777,6.729,6.729,0,0,1-6.9-6.728m10.892,0v-.049a4.02,4.02,0,0,0-3.992-4.188,3.9,3.9,0,0,0-3.918,4.139v.049a4.031,4.031,0,0,0,3.967,4.189,3.925,3.925,0,0,0,3.943-4.14" transform="translate(41.279 4.91)" fill="#555"/>
          <rect id="Rectangle_467" data-name="Rectangle 467" width="2.981" height="17.987" transform="translate(142.934 10.37)" fill="#555"/>
          <path id="Path_420" data-name="Path 420" d="M103.5,21.731l1.33-2.02a7.309,7.309,0,0,0,4.265,1.6c1.281,0,2.02-.543,2.02-1.406v-.049c0-1.01-1.381-1.355-2.908-1.823-1.922-.543-4.066-1.332-4.066-3.819v-.05c0-2.465,2.045-3.967,4.633-3.967a9.022,9.022,0,0,1,4.78,1.477L112.367,13.8a7.552,7.552,0,0,0-3.672-1.232c-1.158,0-1.823.541-1.823,1.306v.047c0,.937,1.4,1.332,2.932,1.824,1.9.592,4.041,1.453,4.041,3.795v.05c0,2.735-2.119,4.09-4.83,4.09a9.142,9.142,0,0,1-5.52-1.947" transform="translate(49.983 4.926)" fill="#555"/>
          <path id="Path_421" data-name="Path 421" d="M44.711,7.491H41.68v5.091a7.1,7.1,0,0,0-3.9-1.124,6.8,6.8,0,0,0-6.949,6.8v.049a6.73,6.73,0,0,0,6.9,6.728,6.8,6.8,0,0,0,6.973-6.74h0ZM41.727,18.308a3.924,3.924,0,0,1-3.943,4.14,4.031,4.031,0,0,1-3.967-4.189V18.21a3.9,3.9,0,0,1,3.918-4.139,4.02,4.02,0,0,1,3.992,4.188Z" transform="translate(14.892 3.618)" fill="#555"/>
          <rect id="Rectangle_468" data-name="Rectangle 468" width="2.982" height="13.01" transform="translate(148.668 15.348)" fill="#555"/>
          <path id="Path_422" data-name="Path 422" d="M101.778,7.009A1.606,1.606,0,0,0,100.165,8.7v.021a1.646,1.646,0,0,0,1.634,1.714,1.6,1.6,0,0,0,1.6-1.694V8.723a1.65,1.65,0,0,0-1.624-1.714" transform="translate(48.374 3.385)" fill="#555"/>
          <path id="Path_423" data-name="Path 423" d="M82.156,10.17a6.8,6.8,0,0,0-6.973,6.74h0V27.715h3.031V22.624a7.085,7.085,0,0,0,3.894,1.123,6.8,6.8,0,0,0,6.949-6.8V16.9a6.727,6.727,0,0,0-6.9-6.727M86.074,17a3.9,3.9,0,0,1-3.918,4.139,4.021,4.021,0,0,1-3.992-4.189V16.9a3.924,3.924,0,0,1,3.942-4.139,4.031,4.031,0,0,1,3.968,4.188Z" transform="translate(36.308 4.912)" fill="#555"/>
          <path id="Path_424" data-name="Path 424" d="M51.566,10.155a5.841,5.841,0,0,0-5.834,5.607v7.686h2.982V16.057c0-2.021,1.01-3.179,2.785-3.179a.419.419,0,0,1,.043,0h.024c.025,0,.05,0,.077,0,1.774,0,2.783,1.158,2.783,3.178v7.392h2.982V15.959a5.844,5.844,0,0,0-5.843-5.8" transform="translate(22.086 4.904)" fill="#555"/>
          <path id="Path_425" data-name="Path 425" d="M61.256,10.155a5.841,5.841,0,0,0-5.834,5.607V23.45H58.4V16.057c0-2.021,1.01-3.179,2.785-3.179h.043v0h.024c.025,0,.05,0,.077,0,1.774,0,2.783,1.161,2.783,3.181v7.392H67.1V15.958a5.844,5.844,0,0,0-5.843-5.8" transform="translate(26.766 4.904)" fill="#555"/>
          <path id="Path_426" data-name="Path 426" d="M43.869,30.592c-.105,0-.209,0-.313.01a1.62,1.62,0,0,1-1.6-.718l-.7-1.212a2.749,2.749,0,0,1,.265-2.818,6.789,6.789,0,1,0-11.781-6.513v0a1.626,1.626,0,0,1-1.391,1.038h-1.4a1.61,1.61,0,0,1-1.378-1.014,6.961,6.961,0,0,0-.331-.716l.01.015-.027-.044c-.061-.113-.125-.222-.191-.331a3.245,3.245,0,0,1-.11-3.168l1.269-2.2a1.613,1.613,0,0,1,1.608-.709l-.019-.007a6.317,6.317,0,0,0,.773.052A6.135,6.135,0,1,0,23.7,9.878a1.616,1.616,0,0,1,.176,1.774l-1.226,2.125a3.324,3.324,0,0,1-2.933,1.277c-.16-.01-.32-.019-.483-.019a6.787,6.787,0,0,0-5.85,10.234l-.027-.031c.021.031.042.058.062.09.085.138.172.277.265.408a3.147,3.147,0,0,1,.3,3.064l-.179.307-.736,1.277-.6,1.037h0L13.641,29.4a3.378,3.378,0,0,1-3.249,1.624c-.133-.006-.267-.013-.4-.013q-.249,0-.494.018c-.1.006-.2.012-.3.022a7.755,7.755,0,1,0,7.014,3.108,3.355,3.355,0,0,1-.24-3.541l.288-.5a3.255,3.255,0,0,1,2.812-1.51c.055,0,.108.006.165.006q.125,0,.249,0h.021a6.793,6.793,0,0,0,6.07-4.351,1.6,1.6,0,0,1,1.409-1.011H28.3a1.614,1.614,0,0,1,1.425,1.04,6.791,6.791,0,0,0,6.329,4.327c.043,0,.087,0,.132,0a2.713,2.713,0,0,1,2.552,1.228l.83,1.435a1.594,1.594,0,0,1-.208,1.72,5.432,5.432,0,1,0,4.507-2.4M15.831,33.676l-.028-.031.016.016.012.015" transform="translate(1.086 0)" fill="#555"/>
          <path id="Path_427" data-name="Path 427" d="M3.031,11.035a.794.794,0,0,1,.765-.784h9.042V7.491H3.67A3.739,3.739,0,0,0,0,11.12V24.739H3.031V17.716h8.7V14.958H7v0H3.031V11.035Z" transform="translate(0 3.618)" fill="#555"/>
        </g>
      </g>
    </g>
    <g id="chemistry_710532" transform="translate(-525.666 4059.255)" opacity="0.058">
      <g id="Group_158" data-name="Group 158" transform="translate(10.666)">
        <g id="Group_157" data-name="Group 157">
          <path id="Path_364" data-name="Path 364" d="M76.221,59.7V48.819l4.431-4.394-1.545-1.564-4.182,4.155-8.14-4.056v-11.8L56.28,25.894l-9.418,4.718-9.427-4.718-9.469,4.718L19.6,26.446V16.018l8.331-4.165,8.331,4.165v6.393h2.212V14.651L29.04,9.933V0H26.828V9.933l-8.075,4.056-6.5-6.514L10.666,9.039l6.726,6.753V26.671l-4.357,4.394,1.582,1.564,4.127-4.155,8.085,4.056v11.8L37.407,49.6l9.455-4.718L56.308,49.6l9.4-4.718,8.3,4.165V59.473l-8.331,4.165-8.331-4.165V53.079H55.137V60.84l9.436,4.718v9.933h2.212V65.558L74.934,61.5l6.55,6.514,1.527-1.564ZM45.7,42.96,37.37,47.125,29.04,42.96V32.531l8.331-4.165L45.7,32.531Zm18.873,0-8.331,4.165L47.912,42.96V32.531l8.331-4.165,8.331,4.165Z" transform="translate(-10.666)" fill="#555"/>
        </g>
      </g>
      <g id="Group_160" data-name="Group 160" transform="translate(23.289 23.738)">
        <g id="Group_159" data-name="Group 159">
          <rect id="Rectangle_456" data-name="Rectangle 456" width="2.359" height="2.212" fill="#555"/>
        </g>
      </g>
      <g id="Group_162" data-name="Group 162" transform="translate(61.035 56.766)">
        <g id="Group_161" data-name="Group 161">
          <rect id="Rectangle_457" data-name="Rectangle 457" width="2.359" height="2.212" fill="#555"/>
        </g>
      </g>
      <g id="Group_164" data-name="Group 164" transform="translate(69.291 49.541)">
        <g id="Group_163" data-name="Group 163">
          <rect id="Rectangle_458" data-name="Rectangle 458" width="2.212" height="9.436" fill="#555"/>
        </g>
      </g>
      <g id="Group_166" data-name="Group 166" transform="translate(31.546 33.027)">
        <g id="Group_165" data-name="Group 165">
          <rect id="Rectangle_459" data-name="Rectangle 459" width="2.212" height="9.436" fill="#555"/>
        </g>
      </g>
    </g>
  </g>
</svg>
